<svg width="64" height="64" viewBox="0 0 64 64" fill="none" xmlns="http://www.w3.org/2000/svg">
  <!-- Star -->
  <path d="M32 4L34 10L40 8L36 14L42 16L36 18L38 24L32 20L26 24L28 18L22 16L28 14L24 8L30 10L32 4Z" fill="#FFD700"/>

  <!-- Tree layers -->
  <path d="M32 12L20 24H44L32 12Z" fill="#2D6A3E"/>
  <path d="M32 20L16 34H48L32 20Z" fill="#3A7F4F"/>
  <path d="M32 28L12 44H52L32 28Z" fill="#4A9960"/>

  <!-- Trunk -->
  <rect x="26" y="44" width="12" height="14" rx="2" fill="#5D4037"/>

  <!-- Ornaments -->
  <circle cx="25" cy="28" r="2" fill="#FF0000"/>
  <circle cx="39" cy="28" r="2" fill="#FFD700"/>
  <circle cx="32" cy="35" r="2" fill="#0066FF"/>
  <circle cx="22" cy="38" r="2" fill="#FF00FF"/>
  <circle cx="42" cy="38" r="2" fill="#00FF00"/>

  <!-- Lights -->
  <circle cx="28" cy="22" r="1.5" fill="#FFFF00" opacity="0.8"/>
  <circle cx="36" cy="22" r="1.5" fill="#FF0000" opacity="0.8"/>
  <circle cx="20" cy="32" r="1.5" fill="#00FF00" opacity="0.8"/>
  <circle cx="44" cy="32" r="1.5" fill="#0066FF" opacity="0.8"/>
</svg>
